HIERARCHY
ROOT Pelvis
{
	OFFSET 0.000000 0.000000 0.000000
	CHANNELS 6 Xposition Yposition Zposition Xrotation Yrotation Zrotation
	JOINT LeftUpLeg_virtual
	{
		OFFSET 0.000000 0.000000 0.000000
		CHANNELS 3 Xrotation Yrotation Zrotation
		JOINT LeftUpLeg
		{
			OFFSET 18.735201 -5.666702 -4.541200
			CHANNELS 3 Xrotation Yrotation Zrotation
			JOINT LeftLeg
			{
				OFFSET -0.021200 -31.938179 0.493100
				CHANNELS 3 Xrotation Yrotation Zrotation
				JOINT LeftFoot
				{
					OFFSET 0.021200 -31.938179 -4.336299
					CHANNELS 3 Xrotation Yrotation Zrotation
					JOINT LeftToeBase
					{
						OFFSET 0.943001 -26.722000 15.023500
						CHANNELS 3 Xrotation Yrotation Zrotation
						End Site
						{
							OFFSET 0 0 0
						}
					}
				}
			}
		}
	}
	JOINT RightUpLeg_virtual
	{
		OFFSET 0.000000 0.000000 0.000000
		CHANNELS 3 Xrotation Yrotation Zrotation
		JOINT RightUpLeg
		{
			OFFSET -18.735201 -5.666702 -4.541200
			CHANNELS 3 Xrotation Yrotation Zrotation
			JOINT RightLeg
			{
				OFFSET 0.018946 -31.938133 0.493100
				CHANNELS 3 Xrotation Yrotation Zrotation
				JOINT RightFoot
				{
					OFFSET -0.018946 -31.938126 -4.336299
					CHANNELS 3 Xrotation Yrotation Zrotation
					JOINT RightToeBase
					{
						OFFSET -0.943001 -26.722004 15.023500
						CHANNELS 3 Xrotation Yrotation Zrotation
						End Site
						{
							OFFSET 0 0 0
						}
					}
				}
			}
		}
	}
	JOINT Hips_virtual
	{
		OFFSET 0.000000 0.000000 0.000000
		CHANNELS 3 Xrotation Yrotation Zrotation
		JOINT Hips
		{
			OFFSET -0.000000 -0.000000 -0.000000
			CHANNELS 3 Xrotation Yrotation Zrotation
			JOINT Spine
			{
				OFFSET 0.000000 10.199997 -0.299500
				CHANNELS 3 Xrotation Yrotation Zrotation
				JOINT Spine1
				{
					OFFSET 0.000000 11.900002 -1.516600
					CHANNELS 3 Xrotation Yrotation Zrotation
					JOINT Spine2
					{
						OFFSET 0.000000 13.600006 -2.842500
						CHANNELS 3 Xrotation Yrotation Zrotation
						JOINT Neck_virtual
						{
							OFFSET 0.000000 0.000000 0.000000
							CHANNELS 3 Xrotation Yrotation Zrotation
							JOINT Neck
							{
								OFFSET 0.000000 9.624100 -2.890100
								CHANNELS 3 Xrotation Yrotation Zrotation
								JOINT Head
								{
									OFFSET 0.000000 14.068802 -1.351900
									CHANNELS 3 Xrotation Yrotation Zrotation
									End Site
									{
										OFFSET 0 0 0
									}
								}
							}
						}
						JOINT LeftShoulder_virtual
						{
							OFFSET 0.000000 0.000000 0.000000
							CHANNELS 3 Xrotation Yrotation Zrotation
							JOINT LeftShoulder
							{
								OFFSET 15.263000 10.923401 -0.547700
								CHANNELS 3 Xrotation Yrotation Zrotation
								JOINT LeftArm
								{
									OFFSET 25.438599 -2.830597 -13.032500
									CHANNELS 3 Xrotation Yrotation Zrotation
									JOINT LeftForeArm
									{
										OFFSET 29.960503 0.000000 0.000000
										CHANNELS 3 Xrotation Yrotation Zrotation
										JOINT LeftHand
										{
											OFFSET 27.849251 0.000000 0.000000
											CHANNELS 3 Xrotation Yrotation Zrotation
											End Site
											{
												OFFSET 0 0 0
											}
										}
									}
								}
							}
						}
						JOINT RightShoulder_virtual
						{
							OFFSET 0.000000 0.000000 0.000000
							CHANNELS 3 Xrotation Yrotation Zrotation
							JOINT RightShoulder
							{
								OFFSET -15.263000 10.923401 -0.547700
								CHANNELS 3 Xrotation Yrotation Zrotation
								JOINT RightArm
								{
									OFFSET -25.438599 -2.830597 -13.032500
									CHANNELS 3 Xrotation Yrotation Zrotation
									JOINT RightForeArm
									{
										OFFSET -29.960503 0.000000 0.000000
										CHANNELS 3 Xrotation Yrotation Zrotation
										JOINT RightHand
										{
											OFFSET -27.849251 0.000000 0.000000
											CHANNELS 3 Xrotation Yrotation Zrotation
											End Site
											{
												OFFSET 0 0 0
											}
										}
									}
								}
							}
						}
					}
				}
			}
		}
	}
}
MOTION
Frames: 12
Frame Time: 0.03333333
6.133416 91.378197 8.638292 0.000000 0.000000 0.000000 -0.180368 19.019883 6.496863 -24.872388 -5.729245 -5.034408 25.465688 0.490192 -5.162321 -0.931912 10.469854 0.580060 0.000000 0.000000 0.000000 -0.180368 19.019883 6.496863 11.220110 -12.939154 -12.118986 21.746795 -20.725509 1.164274 -10.274473 -32.854689 25.637837 0.000000 0.000000 0.000000 -0.180368 19.019883 6.496863 0.000000 0.000001 0.000000 0.109449 6.921552 10.506846 8.389055 6.747491 0.422352 0.000000 0.000000 0.000000 0.206958 6.614083 0.368023 -2.656320 -3.856008 0.704628 0.000000 0.000000 0.000000 0.206958 6.614083 0.368023 -0.154065 9.312177 20.132346 -63.723370 6.157086 -31.462460 -41.259192 -20.602962 13.295851 0.000000 0.000000 0.000000 0.206958 6.614083 0.368023 5.429959 9.442473 5.676211 15.856573 -66.495238 55.369963 -0.248998 19.228905 37.981517 0.000000 0.000000 0.000000 
6.331455 90.978119 8.609222 0.000000 0.000000 0.000000 0.433304 23.763731 5.811460 -28.173350 -8.365285 -5.936360 26.875560 -0.478954 -5.465181 -0.117370 9.680640 0.635368 0.000000 0.000000 0.000000 0.433304 23.763731 5.811460 13.784679 -17.414607 -10.063658 18.012370 -20.260549 0.509529 -9.868747 -31.218848 25.765879 0.000000 0.000000 0.000000 0.433304 23.763731 5.811460 0.000000 -0.000002 0.000000 -1.108415 7.283803 10.484252 7.340191 7.401400 -0.347055 0.000000 0.000000 0.000000 0.687532 7.224083 -0.473162 -3.050342 -4.392090 1.151301 0.000000 0.000000 0.000000 0.687532 7.224083 -0.473162 -0.958328 11.589819 16.054737 -66.492090 6.731935 -32.420917 -50.068528 -20.341212 15.357171 0.000000 0.000000 0.000000 0.687532 7.224083 -0.473162 5.228956 9.723384 6.084445 10.668887 -68.209418 51.667502 -0.500528 18.866878 38.212364 0.000000 0.000000 0.000000 
6.480403 90.591545 8.550835 0.000000 0.000000 0.000000 1.118823 27.878008 5.146714 -31.148463 -10.837823 -7.035669 27.891988 -0.980869 -5.666446 0.742522 8.946080 0.513594 0.000000 0.000000 0.000000 1.118823 27.878008 5.146714 16.173546 -22.045646 -8.154592 14.446065 -18.891453 -0.000853 -9.656234 -29.375380 25.569180 0.000000 0.000000 0.000000 1.118823 27.878008 5.146714 0.000000 0.000002 0.000000 -2.138768 7.664456 10.142039 6.409503 8.037282 -1.007984 0.000000 0.000000 0.000000 1.207254 7.779497 -1.226571 -3.430380 -4.817183 1.546776 0.000000 0.000000 0.000000 1.207254 7.779497 -1.226571 -1.386120 13.153983 11.553611 -68.111391 6.494231 -33.152413 -54.982791 -21.210145 14.224126 0.000000 0.000000 0.000000 1.207254 7.779497 -1.226571 5.052230 10.207459 6.320872 6.135838 -67.294521 48.041225 0.327627 18.396973 37.774559 0.000000 0.000000 0.000000 
6.562421 90.274658 8.497540 0.000000 0.000000 0.000000 1.776550 30.797562 4.634100 -33.507952 -13.154236 -8.226910 28.435300 -1.662461 -5.831700 1.421373 9.434870 0.256700 0.000000 0.000000 0.000000 1.776550 30.797562 4.634100 17.991820 -25.236495 -6.542765 11.829304 -17.996988 -0.301564 -9.581610 -28.120702 25.353348 0.000000 0.000000 0.000000 1.776550 30.797562 4.634100 0.000000 0.000000 -0.000001 -3.036286 8.051311 9.583232 5.554688 8.658312 -1.589358 0.000000 0.000000 0.000000 1.738241 8.299229 -1.912930 -3.792772 -5.169267 1.911216 0.000000 0.000000 0.000000 1.738241 8.299229 -1.912930 -1.577758 14.389631 6.973792 -69.478009 6.137846 -33.977971 -57.150536 -21.535482 12.111630 0.000000 0.000000 0.000000 1.738241 8.299229 -1.912930 4.894000 10.841111 6.313586 4.878251 -64.300883 47.139094 1.435493 17.723762 37.243526 0.000000 0.000000 0.000000 
6.625563 89.952576 8.430471 0.000000 0.000000 0.000000 2.474981 33.533476 4.115829 -35.774653 -15.193746 -9.425587 28.932965 -1.343238 -5.891317 2.137457 8.845302 -0.104617 0.000000 0.000000 0.000000 2.474981 33.533476 4.115829 19.776304 -28.178140 -4.887230 9.438317 -17.132618 -0.514698 -9.522127 -26.956655 25.155624 0.000000 0.000000 0.000000 2.474981 33.533476 4.115829 0.000000 0.000000 0.000000 -3.712409 8.482402 8.599887 4.795340 9.253632 -2.038449 0.000000 0.000000 0.000000 2.249932 8.768046 -2.484068 -4.095314 -5.437939 2.236781 0.000000 0.000000 0.000000 2.249932 8.768046 -2.484068 -1.621775 15.306806 2.620804 -71.180133 6.283625 -35.271073 -57.708535 -23.005252 6.646876 0.000000 0.000000 0.000000 2.249932 8.768046 -2.484068 4.729927 11.739377 5.847127 6.391980 -59.059164 48.674223 2.395713 16.620055 37.009114 0.000000 0.000000 0.000000 
6.673656 89.630356 8.355091 0.000000 0.000000 0.000000 3.212403 36.096392 3.582433 -37.856170 -16.624583 -10.476498 29.363567 -0.501984 -5.885694 2.869637 7.296496 -0.400359 0.000000 0.000000 0.000000 3.212403 36.096392 3.582433 21.567210 -30.882256 -3.168985 7.197542 -16.317312 -0.663661 -9.461878 -25.875122 24.970171 0.000000 0.000000 0.000000 3.212403 36.096392 3.582433 0.000000 0.000002 0.000000 -4.200945 8.914566 7.119244 4.148994 9.738355 -2.313489 0.000000 0.000000 0.000000 2.622313 9.143783 -2.876045 -4.310093 -5.632899 2.509362 0.000000 0.000000 0.000000 2.622313 9.143783 -2.876045 -1.551608 16.133071 -1.361286 -73.331308 7.070544 -36.866462 -56.368038 -25.384589 -0.231588 0.000000 0.000000 0.000000 2.622313 9.143783 -2.876045 4.563272 12.285507 5.226378 6.941775 -52.767429 49.307641 2.904020 16.059757 35.334683 0.000000 0.000000 0.000000 
6.706699 89.306488 8.271235 0.000000 0.000000 0.000000 3.987432 38.493006 3.034194 -39.859710 -17.890637 -11.578047 29.592314 -0.807536 -5.965477 3.579811 6.951025 -0.626554 0.000000 0.000000 0.000000 3.987432 38.493006 3.034194 23.342776 -33.356031 -1.405942 5.131906 -15.556616 -0.764466 -9.432420 -24.880369 24.797978 0.000000 0.000000 0.000000 3.987432 38.493006 3.034194 0.000000 -0.000002 0.000000 -4.567956 9.329326 5.361687 3.593089 10.141867 -2.485581 0.000000 0.000000 0.000000 2.909253 9.451915 -3.156953 -4.653561 -5.798313 2.727778 0.000000 0.000000 0.000000 2.909253 9.451915 -3.156953 -1.342546 16.746603 -4.916585 -75.681535 8.665867 -38.500902 -54.216098 -28.224041 -6.744420 0.000000 0.000000 0.000000 2.909253 9.451915 -3.156953 4.418119 12.432830 4.741258 6.136390 -45.548742 48.147909 3.200802 15.611176 32.866761 0.000000 0.000000 0.000000 
6.724005 88.974792 8.177057 0.000000 0.000000 0.000000 4.798747 40.728575 2.473730 -41.804344 -19.007829 -12.695227 29.768205 -1.112613 -6.034417 4.271103 6.646562 -0.866054 0.000000 0.000000 0.000000 4.798747 40.728575 2.473730 25.034916 -35.610147 0.349746 3.338966 -14.845686 -0.823855 -9.504090 -23.986525 24.642581 0.000000 0.000000 0.000000 4.798747 40.728575 2.473730 0.000000 -0.000001 0.000001 -4.798851 9.610420 3.741884 3.339393 10.362826 -2.593820 0.000000 0.000000 0.000000 3.099137 9.611390 -3.324042 -4.923414 -5.887682 2.829522 0.000000 0.000000 0.000000 3.099137 9.611390 -3.324042 -0.965400 17.007811 -7.793446 -77.726419 11.425768 -39.832048 -51.878364 -31.067156 -12.831184 0.000000 0.000000 0.000000 3.099137 9.611390 -3.324042 4.224907 12.867664 4.486712 5.329455 -38.837583 46.365947 4.698899 16.008976 27.128063 0.000000 0.000000 0.000000 
6.728871 88.641502 8.076490 0.000000 0.000000 0.000000 5.644463 42.812848 1.895853 -43.679394 -19.994626 -13.813702 29.886913 -1.411457 -6.093503 4.944401 6.378732 -1.115836 0.000000 0.000000 0.000000 5.644463 42.812848 1.895853 26.887197 -37.651483 2.255104 1.428492 -14.234418 -0.881646 -9.552996 -23.152405 24.463482 0.000000 0.000000 0.000000 5.644463 42.812848 1.895853 0.000000 0.000000 0.000000 -4.961905 9.813007 2.355272 3.231454 10.504530 -2.704874 0.000000 0.000000 0.000000 3.255603 9.706643 -3.468076 -5.160136 -5.944164 2.879502 0.000000 0.000000 0.000000 3.255603 9.706643 -3.468076 -0.525907 17.246892 -10.596939 -79.108453 14.375707 -40.758280 -49.209997 -33.893250 -17.849870 0.000000 0.000000 0.000000 3.255603 9.706643 -3.468076 4.015192 13.437628 4.299440 3.991888 -33.106381 43.645763 6.559017 16.302208 20.737226 0.000000 0.000000 0.000000 
6.724272 88.313972 7.972887 0.000000 0.000000 0.000000 6.522588 44.755361 1.296409 -45.476912 -20.861976 -14.959765 29.827761 -2.849218 -6.232450 5.595612 7.318775 -1.367294 0.000000 0.000000 0.000000 6.522588 44.755361 1.296409 27.874253 -39.533159 3.591726 0.874580 -13.532095 -0.840688 -10.022610 -22.514045 24.426367 0.000000 0.000000 0.000000 6.522588 44.755361 1.296409 0.000000 0.000001 0.000000 -5.079963 9.956982 1.266247 3.212733 10.604267 -2.845205 0.000000 0.000000 0.000000 3.400539 9.768659 -3.624247 -5.376359 -5.982152 2.900670 0.000000 0.000000 0.000000 3.400539 9.768659 -3.624247 -0.059513 17.582717 -13.424227 -79.623839 17.116551 -41.254189 -46.150652 -36.232566 -21.260156 0.000000 0.000000 0.000000 3.400539 9.768659 -3.624247 3.802797 14.096477 4.144494 1.713144 -28.850630 40.087654 7.931360 16.283166 15.789997 0.000000 0.000000 0.000000 
6.713425 87.994690 7.869085 0.000000 0.000000 0.000000 7.431234 46.564538 0.671552 -47.189470 -21.643821 -16.048503 29.825373 -3.119607 -6.271901 6.236462 7.112820 -1.645596 0.000000 0.000000 0.000000 7.431234 46.564538 0.671552 28.625263 -41.268720 4.770288 0.692569 -12.864954 -0.791920 -10.634509 -21.977855 24.410418 0.000000 0.000000 0.000000 7.431234 46.564538 0.671552 0.000001 0.000000 0.000000 -5.148972 10.067701 0.502886 3.245206 10.685329 -3.007037 0.000000 0.000000 0.000000 3.531426 9.819412 -3.791628 -5.572034 -6.003795 2.900378 0.000000 0.000000 0.000000 3.531426 9.819412 -3.791628 0.401630 18.021037 -16.091212 -79.292479 19.569107 -41.384666 -43.691976 -38.721309 -24.422590 0.000000 0.000000 0.000000 3.531426 9.819412 -3.791628 3.585316 14.874989 4.107604 -1.846078 -26.358680 35.988482 7.612999 16.232710 15.156632 0.000000 0.000000 0.000000 
6.698061 87.687714 7.766388 0.000000 0.000000 0.000000 8.368091 48.248087 0.020124 -48.815499 -22.349561 -17.111249 29.765719 -3.346534 -6.298997 6.861279 6.911399 -1.929597 0.000000 0.000000 0.000000 8.368091 48.248087 0.020124 29.374492 -42.856575 5.948369 0.519337 -12.273438 -0.757845 -11.257972 -21.502334 24.380215 0.000000 0.000000 0.000000 8.368091 48.248087 0.020124 0.000000 0.000001 0.000000 -5.186057 10.164270 -0.052097 3.300536 10.760008 -3.175549 0.000000 0.000000 0.000000 3.650577 9.868570 -3.960978 -5.753216 -6.014858 2.887202 0.000000 0.000000 0.000000 3.650577 9.868570 -3.960978 0.865759 18.510643 -18.583251 -78.463690 21.832408 -41.327999 -41.688650 -41.313984 -27.352141 0.000000 0.000000 0.000000 3.650577 9.868570 -3.960978 3.385712 15.679828 3.994306 -8.455515 -25.731913 31.326085 6.824451 16.272543 15.887995 0.000000 0.000000 0.000000 
